<?xml version="1.0" encoding="UTF-8" standalone="no"?>
<svg
   xmlns:dc="http://purl.org/dc/elements/1.1/"
   xmlns:cc="http://creativecommons.org/ns#"
   xmlns:rdf="http://www.w3.org/1999/02/22-rdf-syntax-ns#"
   xmlns:svg="http://www.w3.org/2000/svg"
   xmlns="http://www.w3.org/2000/svg"
   xmlns:sodipodi="http://sodipodi.sourceforge.net/DTD/sodipodi-0.dtd"
   xmlns:inkscape="http://www.inkscape.org/namespaces/inkscape"
   version="1.1"
   id="Layer_1"
   x="0px"
   y="0px"
   width="100"
   height="100"
   viewBox="0 0 100 100"
   enable-background="new 0 0 100 100"
   xml:space="preserve"
   inkscape:version="0.48.2 r9819"
   sodipodi:docname="vibrant-code.svg"><metadata
   id="metadata21"><rdf:RDF><cc:Work
       rdf:about=""><dc:format>image/svg+xml</dc:format><dc:type
         rdf:resource="http://purl.org/dc/dcmitype/StillImage" /></cc:Work></rdf:RDF></metadata><defs
   id="defs19" /><sodipodi:namedview
   pagecolor="#ffffff"
   bordercolor="#666666"
   borderopacity="1"
   objecttolerance="10"
   gridtolerance="10"
   guidetolerance="10"
   inkscape:pageopacity="0"
   inkscape:pageshadow="2"
   inkscape:window-width="1366"
   inkscape:window-height="705"
   id="namedview17"
   showgrid="false"
   inkscape:zoom="3.6203867"
   inkscape:cx="6.4655269"
   inkscape:cy="61.374854"
   inkscape:window-x="-8"
   inkscape:window-y="-8"
   inkscape:window-maximized="1"
   inkscape:current-layer="Layer_1" />
<path
   display="none"
   d="m 69.172,11.265 c -0.191,-0.192 -0.502,-0.192 -0.695,0 L 11.639,68.029 c -0.192,0.191 -0.192,0.501 0,0.692 l 19.207,19.184 c 0.096,0.095 0.222,0.143 0.348,0.143 0.125,0 0.251,-0.048 0.347,-0.143 L 88.38,31.14 c 0.093,-0.092 0.145,-0.216 0.145,-0.347 0,-0.131 -0.052,-0.255 -0.145,-0.347 L 69.172,11.265 z"
   id="path3"
   inkscape:connector-curvature="0"
   style="display:none" />
<path
   display="none"
   d="M 96.846,9.12 90.527,2.809 C 88.713,0.998 86.301,0 83.735,0 81.171,0 78.758,0.998 76.945,2.809 L 70.626,9.12 c -0.093,0.092 -0.145,0.216 -0.145,0.347 0,0.13 0.052,0.254 0.145,0.346 l 19.207,19.182 c 0.092,0.092 0.218,0.144 0.348,0.144 0.131,0 0.255,-0.052 0.346,-0.144 l 6.319,-6.311 c 1.814,-1.812 2.813,-4.22 2.813,-6.783 0,-2.561 -0.999,-4.969 -2.813,-6.781 z"
   id="path5"
   inkscape:connector-curvature="0"
   style="display:none" />
<path
   display="none"
   d="m 10.358,69.967 c -0.122,-0.121 -0.296,-0.172 -0.464,-0.129 -0.167,0.04 -0.3,0.165 -0.351,0.33 L 0.363,99.363 C 0.308,99.541 0.357,99.732 0.49,99.861 0.584,99.952 0.707,100 0.832,100 c 0.054,0 0.11,-0.011 0.164,-0.029 L 29.383,89.959 c 0.159,-0.056 0.278,-0.188 0.315,-0.354 0.037,-0.164 -0.012,-0.337 -0.132,-0.455 L 10.358,69.967 z"
   id="path7"
   inkscape:connector-curvature="0"
   style="display:none" />
<path
   d="m 37.071791,62.652 c -0.938,1.405 -2.811,2.343 -4.452,2.343 -1.64,0 -3.162,-0.703 -3.982,-2.46 l 0,0.117 c -4.92,-8.317 -11.48,-19.915 -16.049,-27.647 l 10.895,0 c 1.757,3.046 3.749,7.146 9.255,17.455 l 0.116,-0.117 c 2.461,-5.506 6.209,-11.832 9.489,-17.338 l 11.012,0 -16.284,27.647 z"
   id="path9"
   style="fill:#1ba1e2;fill-opacity:1"
   inkscape:connector-curvature="0" />
<path
   d="m 56.984545,54.1 c -1.404,-0.938 -2.343,-2.812 -2.343,-4.452 0,-1.64 0.703,-3.162 2.461,-3.982 l -0.118,0 c 8.317,-4.92 19.916,-11.48 27.647,-16.049 l 0,10.895 c -3.046,1.756 -7.146,3.748 -17.455,9.254 l 0.117,0.116 c 5.505,2.461 11.832,6.209 17.338,9.489 l 0,11.012 -27.647,-16.283 z"
   id="path11"
   style="fill:#339933;fill-opacity:1;stroke:none"
   inkscape:connector-curvature="0" />


</svg>